<?xml version="1.0" encoding="utf-8"?>
<!-- Generator: Adobe Illustrator 23.0.6, SVG Export Plug-In . SVG Version: 6.00 Build 0)  -->
<svg version="1.1" id="Layer_1" xmlns="http://www.w3.org/2000/svg" xmlns:xlink="http://www.w3.org/1999/xlink" x="0px" y="0px"
	 viewBox="0 0 150 150" style="enable-background:new 0 0 150 150;" xml:space="preserve">
<style type="text/css">
	.st0{fill:#FFFFFF;}
	.st1{fill:none;stroke:#000000;stroke-linecap:round;stroke-linejoin:round;stroke-miterlimit:10;}
	.st2{fill:none;stroke:#000000;stroke-width:7;stroke-linecap:round;stroke-linejoin:round;stroke-miterlimit:10;}
	.st3{fill:none;stroke:#1C75BC;stroke-width:15;stroke-linecap:round;stroke-linejoin:round;stroke-miterlimit:10;}
	.st4{fill:none;stroke:#000000;stroke-width:15;stroke-linecap:round;stroke-linejoin:round;stroke-miterlimit:10;}
</style>
<g>
	<g>
		<path class="st0" d="M15.5,116.4c-1.9-5.1-4.1-13.3-4.1-23.7c0-10.4,2.2-18.6,4.1-23.7h119.9c-1,7-1.5,14.2-1.6,21.3
			c-0.1,8.7,0.4,17.5,1.6,26.1L15.5,116.4L15.5,116.4z"/>
		<path d="M134.9,69.5c-0.9,6.8-1.4,13.8-1.5,20.8c-0.1,8.6,0.4,17.2,1.5,25.6h-119C14,110.8,12,102.9,12,92.7s2.1-18.1,3.9-23.2
			L134.9,69.5 M136,68.5c-40.3,0-80.6,0-120.8,0C13.8,72.2,11,80.9,11,92.7c0,11.8,2.8,20.5,4.2,24.2H136c-1-7-1.8-16-1.7-26.6
			C134.5,81.9,135.2,74.5,136,68.5L136,68.5z"/>
	</g>
	<line class="st1" x1="18.1" y1="81.1" x2="60.3" y2="81.1"/>
	<g>
		<path class="st0" d="M24.6,53.6c0.7-1.8,1.8-6.1,2-11.9c0.2-6.3-1.1-10.3-1.9-11.9H124c0.1,0.2,0.2,0.5,0.3,0.9
			c0.8,1.8,2.4,5.6,2.3,11.1c-0.1,5.9-1.7,9.7-2.4,11.3c-0.1,0.3-0.2,0.5-0.3,0.7H24.6z"/>
		<path d="M123.7,30.3c0.1,0.2,0.2,0.4,0.2,0.6c0.8,1.8,2.3,5.5,2.3,10.9c-0.1,5.8-1.7,9.5-2.3,11.1c-0.1,0.1-0.1,0.2-0.2,0.4H25.4
			c0.8-2.2,1.6-6.4,1.8-11.4c0.2-5.6-0.8-9.4-1.7-11.5L123.7,30.3 M124.5,29.3c-33.6,0-67.1,0-100.7,0c0.4,0.4,2.6,4.4,2.3,12.4
			c-0.2,7-1.8,11.9-2.3,12.4h100.7c-0.3-0.3,2.6-4.4,2.7-12.4C127.3,34,124.2,29.6,124.5,29.3L124.5,29.3z"/>
	</g>
	<path class="st2" d="M20.1,29.3H126c0,3.6,2.3,8.9,2.3,12.4c0,4.7-2.3,7.7-2.3,12.4H20.1"/>
	<line class="st1" x1="18.1" y1="86.1" x2="98.7" y2="86.1"/>
	<line class="st1" x1="18.1" y1="104.1" x2="46.7" y2="104.1"/>
	<path class="st3" d="M140.3,68.5H13.8c0,6.9-2.8,17.3-2.8,24.2c0,9.2,2.8,15,2.8,24.2h126.5"/>
	<path class="st4" d="M140.3,68.5H13.8c0,6.9-2.8,17.3-2.8,24.2c0,9.2,2.8,15,2.8,24.2h126.5"/>
	<line class="st1" x1="61.5" y1="39" x2="127.7" y2="39"/>
	<line class="st1" x1="82.3" y1="42.1" x2="126.9" y2="42.1"/>
</g>
</svg>
