<?xml version="1.0" encoding="utf-8"?>
<!-- Generator: Adobe Illustrator 23.0.6, SVG Export Plug-In . SVG Version: 6.00 Build 0)  -->
<svg version="1.1" id="Layer_1" xmlns="http://www.w3.org/2000/svg" xmlns:xlink="http://www.w3.org/1999/xlink" x="0px" y="0px"
	 viewBox="0 0 150 150" style="enable-background:new 0 0 150 150;" xml:space="preserve">
<style type="text/css">
	.st0{fill:#FFFFFF;stroke:#000000;stroke-width:1.7732;stroke-miterlimit:10;}
	.st1{fill:none;stroke:#000000;stroke-width:0.8866;stroke-miterlimit:10;}
	.st2{fill:none;stroke:#000000;stroke-width:3.5464;stroke-linecap:round;stroke-miterlimit:10;}
</style>
<g>
	<path class="st0" d="M111.9,25.2H44.2c-3.3,0-6,2.7-6,6v87.5c0,3.3,2.7,6,6,6h67.7c3.3,0,6-2.7,6-6V31.3
		C117.9,27.9,115.2,25.2,111.9,25.2z M45.9,116.5c-2.1,0-3.8-1.7-3.8-3.8c0-2.1,1.7-3.8,3.8-3.8s3.8,1.7,3.8,3.8
		C49.7,114.8,48,116.5,45.9,116.5z M45.9,105c-2.1,0-3.8-1.7-3.8-3.8c0-2.1,1.7-3.8,3.8-3.8s3.8,1.7,3.8,3.8
		C49.7,103.3,48,105,45.9,105z M45.9,92.6c-2.1,0-3.8-1.7-3.8-3.8c0-2.1,1.7-3.8,3.8-3.8s3.8,1.7,3.8,3.8
		C49.7,90.9,48,92.6,45.9,92.6z M45.9,81.1c-2.1,0-3.8-1.7-3.8-3.8c0-2.1,1.7-3.8,3.8-3.8s3.8,1.7,3.8,3.8
		C49.7,79.4,48,81.1,45.9,81.1z M45.9,68.6c-2.1,0-3.8-1.7-3.8-3.8c0-2.1,1.7-3.8,3.8-3.8s3.8,1.7,3.8,3.8
		C49.7,66.9,48,68.6,45.9,68.6z M45.9,57.1c-2.1,0-3.8-1.7-3.8-3.8c0-2.1,1.7-3.8,3.8-3.8s3.8,1.7,3.8,3.8
		C49.7,55.4,48,57.1,45.9,57.1z M45.9,44.7c-2.1,0-3.8-1.7-3.8-3.8s1.7-3.8,3.8-3.8s3.8,1.7,3.8,3.8S48,44.7,45.9,44.7z"/>
	<line class="st1" x1="54.1" y1="31.4" x2="54.1" y2="119.2"/>
	<line class="st1" x1="62.1" y1="41.2" x2="110" y2="41.2"/>
	<line class="st1" x1="62.1" y1="49.2" x2="110" y2="49.2"/>
	<line class="st1" x1="62.1" y1="57.1" x2="110" y2="57.1"/>
	<line class="st1" x1="62.1" y1="65.1" x2="110" y2="65.1"/>
	<line class="st1" x1="62.1" y1="73.1" x2="110" y2="73.1"/>
	<line class="st1" x1="62.1" y1="81.1" x2="110" y2="81.1"/>
	<line class="st1" x1="62.1" y1="89.1" x2="110" y2="89.1"/>
	<line class="st1" x1="62.1" y1="97" x2="110" y2="97"/>
	<line class="st1" x1="62.1" y1="105" x2="110" y2="105"/>
	<line class="st1" x1="62.1" y1="113" x2="110" y2="113"/>
	<line class="st2" x1="32.1" y1="40.8" x2="46.1" y2="40.8"/>
	<line class="st2" x1="32.1" y1="53.5" x2="46.1" y2="53.5"/>
	<line class="st2" x1="32.1" y1="64.9" x2="46.1" y2="64.9"/>
	<line class="st2" x1="32.1" y1="77.4" x2="46.1" y2="77.4"/>
	<line class="st2" x1="32.1" y1="88.9" x2="46.1" y2="88.9"/>
	<line class="st2" x1="32.1" y1="101.3" x2="46.1" y2="101.3"/>
	<line class="st2" x1="32.1" y1="112.8" x2="46.1" y2="112.8"/>
</g>
</svg>
