<?xml version="1.0" encoding="utf-8"?>
<!-- Generator: Adobe Illustrator 23.0.6, SVG Export Plug-In . SVG Version: 6.00 Build 0)  -->
<svg version="1.1" id="Layer_1" xmlns="http://www.w3.org/2000/svg" xmlns:xlink="http://www.w3.org/1999/xlink" x="0px" y="0px"
	 viewBox="0 0 150 150" style="enable-background:new 0 0 150 150;" xml:space="preserve">
<style type="text/css">
	.st0{fill:#FFFFFF;stroke:#000000;stroke-width:2.2145;stroke-miterlimit:10;}
	.st1{fill:none;stroke:#000000;stroke-miterlimit:10;}
	.st2{fill:none;stroke:#000000;stroke-width:1.1072;stroke-miterlimit:10;}
	.st3{fill:#FFFFFF;}
</style>
<g>
	<path class="st0" d="M137.8,31.3v87.6c0,3.3-2.7,6-6,6H19.5c-3.3,0-6-2.7-6-6V31.3c0-3.3,2.7-6,6-6h112.3
		C135.1,25.3,137.8,28,137.8,31.3z"/>
	<line class="st1" x1="84.3" y1="41.6" x2="84.3" y2="108.4"/>
	<path class="st2" d="M123.4,52.9h-8.3c-2.8,0-5.1-2.3-5.1-5.1v-8.3c0-2.8,2.3-5.1,5.1-5.1h8.3c2.8,0,5.1,2.3,5.1,5.1v8.3
		C128.5,50.6,126.2,52.9,123.4,52.9z"/>
	<path d="M72.3,103H25.9c-3.1,0-5.6-2.5-5.6-5.6V40.5c0-3.1,2.5-5.6,5.6-5.6h46.4c3.1,0,5.6,2.5,5.6,5.6v56.9
		C77.9,100.5,75.4,103,72.3,103z"/>
	<g>
		<g>
			<path class="st3" d="M32,51.4c-0.7-1.4-0.3-3.7-1.7-4.8c-1.3-1-2.9-0.1-3.8,1c-1.5,1.9-2.3,4.6-2.7,6.9c-0.4,2.1-0.7,4.9,1,6.5
				c1.3,1.2,3.2,1.5,4.8,2.1c2.3,0.7,4.2,2,4.7,4.6c0.2,1.2,0.1,2.5-0.5,3.5c-1.6,2.6-3.7-0.4-4-1.9c-0.4-2.6,0.2-5.7,0.8-8.3
				c1.2-6.2,3.8-12,7.3-17.2c-0.3,0-0.5,0-0.8,0c-1.2,5.2-2.4,10.7-0.7,16c0.1,0.3,0.7,0.1,0.8-0.1c2.5-3.9,1.9-8.7,1.2-13
				c-0.3,0.1-0.5,0.1-0.8,0.2c0.8,2.1,1.6,4.3,2.6,6.3c0.5,1,1.4,1.5,2.3,0.8c1.2-0.8,1.8-2.9,2.3-4.2c0.7-2,1-4.1,1-6.2
				c-0.3,0-0.5,0.1-0.8,0.1c0.6,1.6,1.1,3.2,1.7,4.9c0.1,0.3,0.8,0.1,0.8-0.2c0-1.1,0-2.4,0.5-3.4c0.6-1.3,2.4-2.1,3.4-0.7
				c0.2,0.2,0.9,0,0.7-0.3c-0.8-1.2-2.4-1.1-3.6-0.5c-1.7,1-1.9,3.2-1.9,5c0.3,0,0.5-0.1,0.8-0.2c-0.6-1.6-1.1-3.2-1.7-4.9
				c-0.1-0.3-0.8-0.1-0.8,0.1c0,2.9-0.6,5.8-1.9,8.3c-0.3,0.7-1,1.9-1.9,1.3c-0.5-0.3-0.7-1.6-1-2.1c-0.6-1.5-1.3-3.1-1.9-4.6
				c-0.1-0.3-0.9-0.1-0.8,0.2c0.7,4.2,1.4,9-1.1,12.8c0.3,0,0.5-0.1,0.8-0.1c-1.7-5.2-0.5-10.7,0.7-15.9c0.1-0.4-0.7-0.1-0.8,0
				c-3.1,4.5-5.4,9.5-6.8,14.8c-0.7,2.6-1.1,5.3-1.4,8.1c-0.2,2.1-0.2,4.7,2,5.7c1.5,0.7,3,0,3.7-1.5c0.9-1.8,0.6-3.9-0.5-5.5
				c-1.1-1.7-3-2.4-4.8-2.9c-2.1-0.6-4.5-1.2-5-3.6c-0.4-1.6,0-3.6,0.3-5.2c0.4-1.7,1-3.4,1.9-5c0.1-0.2,0.2-0.4,0.4-0.6
				c0.2-0.3,0.4-0.5,0.7-0.8c0.6-0.1,1.1-0.3,1.7-0.4c0.6,0.2,0.9,1.1,1,1.6c0.3,1.1,0.3,2.1,0.8,3.1C31.3,51.9,32.1,51.7,32,51.4
				L32,51.4z"/>
		</g>
	</g>
	<g>
		<g>
			<path class="st3" d="M43.5,64.4c4,7.1,8.1,14.3,9.8,22.4c0.4,2,0.8,4.1,0.6,6.1c0,0.5-0.1,1-0.3,1.5c-0.3,0.8-0.7,1-1.6,1.2
				c-0.8,0.2-0.9,0.3-1.5-0.3c-0.1-0.1-0.2-0.2-0.3-0.4c-0.3-0.5-0.6-1.1-0.8-1.6c-1.5-3.8-1.5-8-1-12.1c0.5-4.8,1.5-9.6,2.5-14.4
				c-0.3,0-0.5,0.1-0.8,0.1c-0.1,2,0.3,4,1.3,5.7c0.8,1.3,2.2,2.9,3.9,2.6c3.7-0.6,1.6-5.6,0.1-7.2c-1-1.1-2.7-2.3-4.3-2.2
				c-1,0.1-1.7,0.8-1.5,1.8c0.2,1.3,1.5,1.8,2.7,1.6c1.6-0.3,2.9-1.7,3.8-2.9c2.8-3.5,3.7-8.2,2.7-12.6c-0.3,0.1-0.5,0.2-0.8,0.3
				c1.3,1.5,2.5,3,3.6,4.7c0.3,0.5,0.7,1,0.9,1.5c0.1,0.2,0.2,0.3,0.2,0.5c0.1,0.7,0,0.6-0.6,0.8c-0.8,0.2-1-0.1-1.1-0.9
				c-0.1-0.4,0-0.9,0.1-1.3c0.9-3.6,4.4-6,5.7-9.3c0.4-1.1,0.3-2.6-0.8-3.2c-0.7-0.4-1.7-0.3-2.3,0.3c-1.9,1.8,0.2,4.6,2.2,5.1
				c2.7,0.6,5.3-1.7,4.9-4.5c0-0.3-0.8-0.1-0.8,0.2c0.3,2.5-2,4.8-4.5,3.5c-0.8-0.4-1.5-1.2-1.7-2.2c-0.2-0.9,0.5-3.3,2-1.7
				c1.6,1.8-0.8,4.4-1.8,5.8c-1.1,1.6-2.4,3.2-3.2,4.9c-0.5,1.1-0.9,2.5-0.2,3.5c0.5,0.8,1.6,1.1,2.4,0.5c1.2-1,0.3-2.5-0.4-3.5
				c-1.2-1.8-2.5-3.5-3.9-5.1c-0.2-0.2-0.8,0-0.8,0.3c0.8,3.2,0.4,6.6-0.9,9.5c-0.7,1.4-1.5,2.7-2.6,3.9c-0.8,0.8-2.5,2.2-3.6,1
				c-0.2-0.2-0.4-0.5-0.5-0.8c-0.2-0.6-0.1-0.7,0.5-1c1.4-0.5,3.3,1.3,4.2,2.4c0.9,1.2,1.6,2.8,1.4,4.3c0,0.3-0.2,0.8-0.4,1.1
				c-0.5,0.2-0.9,0.3-1.4,0.5c-0.4-0.1-0.8-0.3-1.1-0.6c-0.7-0.6-1.2-1.3-1.6-2.1c-0.8-1.6-1.2-3.4-1-5.2c0-0.3-0.8-0.2-0.8,0.1
				c-1,5.1-2.1,10.2-2.6,15.3c-0.4,4.1-0.5,9.3,1.9,12.9c0.8,1.2,2.1,1.6,3.4,0.9c1.5-0.8,2-2.4,1.9-4c0-4.6-1.5-9.3-3.2-13.6
				c-2-5-4.7-9.7-7.3-14.3C44.1,63.9,43.3,64.1,43.5,64.4L43.5,64.4z"/>
		</g>
	</g>
	<g>
		<g>
			<path class="st3" d="M60,42.3c0,2-0.3,4-0.9,6c-0.1,0.3,0.7,0.1,0.8-0.1c0.5-1.9,0.8-4,0.9-6C60.8,41.9,60,42.1,60,42.3L60,42.3z
				"/>
		</g>
	</g>
	<g>
		<g>
			<path class="st3" d="M39.8,70.8c2.5-4.4,5.2-8.6,8.1-12.8c0.3-0.4-0.5-0.5-0.7-0.2c-2.9,4.2-5.6,8.5-8.2,12.9
				C38.8,71.1,39.7,71.2,39.8,70.8L39.8,70.8z"/>
		</g>
	</g>
	<line class="st1" x1="94.6" y1="65.3" x2="125.5" y2="65.3"/>
	<line class="st1" x1="94.6" y1="70.8" x2="125.5" y2="70.8"/>
	<g>
		<g>
			<path d="M97.8,39.4c7.2,5.6,16.4-2.4,24,1.5c0.3,0.2,0.9-0.3,0.5-0.6c-3.5-1.8-7.5-1.2-11.3-0.4c-4.2,0.9-8.9,1.8-12.6-1
				C98.1,38.7,97.4,39.1,97.8,39.4L97.8,39.4z"/>
		</g>
	</g>
	<g>
		<g>
			<path d="M97.8,41.6c7.2,5.6,16.3-2.5,23.9,1.5c0.3,0.2,1-0.3,0.6-0.5c-3.5-1.8-7.4-1.3-11.1-0.5c-4.2,0.9-9.1,2-12.8-1
				C98.1,40.9,97.4,41.3,97.8,41.6L97.8,41.6z"/>
		</g>
	</g>
	<g>
		<g>
			<path d="M97.8,43.8c7.2,5.6,16.3-2.5,23.9,1.5c0.3,0.2,1-0.2,0.6-0.4c-3.5-1.8-7.4-1.2-11.1-0.5c-4.3,0.9-9.1,1.9-12.8-1
				C98.1,43.2,97.4,43.6,97.8,43.8L97.8,43.8z"/>
		</g>
	</g>
	<g>
		<g>
			<path d="M97.7,46c7.2,5.6,16.3-2.5,23.9,1.5c0.3,0.1,1-0.2,0.6-0.4c-3.5-1.8-7.4-1.2-11.1-0.5c-4.3,0.9-9.1,1.9-12.8-1
				C98.1,45.4,97.4,45.8,97.7,46L97.7,46z"/>
		</g>
	</g>
	<line class="st1" x1="94.6" y1="76.4" x2="125.5" y2="76.4"/>
</g>
</svg>
