<?xml version="1.0" encoding="utf-8"?>
<!-- Generator: Adobe Illustrator 23.0.6, SVG Export Plug-In . SVG Version: 6.00 Build 0)  -->
<svg version="1.1" id="Layer_1" xmlns="http://www.w3.org/2000/svg" xmlns:xlink="http://www.w3.org/1999/xlink" x="0px" y="0px"
	 viewBox="0 0 150 150" style="enable-background:new 0 0 150 150;" xml:space="preserve">
<style type="text/css">
	.st0{fill:none;stroke:#000000;stroke-width:2.0213;stroke-linecap:round;stroke-linejoin:round;stroke-miterlimit:10;}
	.st1{fill:none;stroke:#000000;stroke-linecap:round;stroke-linejoin:round;stroke-miterlimit:10;}
	.st2{stroke:#FFFFFF;stroke-width:3.5363;stroke-linecap:round;stroke-linejoin:round;stroke-miterlimit:10;}
	.st3{stroke:#FFFFFF;stroke-width:0.8841;stroke-linecap:round;stroke-linejoin:round;stroke-miterlimit:10;}
</style>
<g>
	<path class="st0" d="M102,72.8c14.9,16.3,30-13.2,29.1-16.2c-0.9-3.1-28.7-14.7-32.8,6.1"/>
	<path class="st1" d="M89.1,80.4c4.2-10,12.3-17.2,26.7-18"/>
	<path class="st1" d="M41,40.9C57,39,68.1,45.4,75.8,55.5C84.6,67.1,87,98.1,86.2,99.7"/>
	<path class="st0" d="M58.9,50.2c-13.9,24.1-40.3-7.8-40-11.8c0.3-4.1,31.3-26,41.8-1.6"/>
	<path class="st2" d="M114.6,100H40.7c-2.6,0-4.7-2.1-4.7-4.7v-3.1c0-2.6,2.1-4.7,4.7-4.7h73.9c2.6,0,4.7,2.1,4.7,4.7v3.1
		C119.3,97.9,117.2,100,114.6,100z"/>
	<polygon class="st3" points="104.4,124.6 51.7,124.6 44.2,100 111.9,100 	"/>
</g>
</svg>
