<?xml version="1.0" encoding="utf-8"?>
<!-- Generator: Adobe Illustrator 24.3.0, SVG Export Plug-In . SVG Version: 6.00 Build 0)  -->
<svg version="1.1" id="Layer_1" xmlns="http://www.w3.org/2000/svg" xmlns:xlink="http://www.w3.org/1999/xlink" x="0px" y="0px"
	 viewBox="0 0 148.87 105.46" style="enable-background:new 0 0 148.87 105.46;" xml:space="preserve">
<style type="text/css">
	.st0{fill:#FFFFFF;stroke:#000000;stroke-linecap:round;stroke-linejoin:round;stroke-miterlimit:10;}
	.st1{fill:#FFFFFF;}
	.st2{fill:none;stroke:#000000;stroke-width:7;stroke-linecap:round;stroke-linejoin:round;stroke-miterlimit:10;}
	.st3{fill:none;stroke:#1C75BC;stroke-width:15;stroke-linecap:round;stroke-linejoin:round;stroke-miterlimit:10;}
	.st4{fill:none;stroke:#000000;stroke-width:15;stroke-linecap:round;stroke-linejoin:round;stroke-miterlimit:10;}
	.st5{fill:none;stroke:#000000;stroke-linecap:round;stroke-linejoin:round;stroke-miterlimit:10;}
</style>
<g>
	<g>
		<path d="M134.32,47.27c-0.92,6.84-1.43,13.82-1.53,20.79c-0.12,8.58,0.4,17.18,1.53,25.6h-119c-1.85-5.08-3.93-13.06-3.93-23.2
			c0-10.14,2.08-18.11,3.93-23.2H134.32 M135.47,46.27c-40.28,0-80.56,0-120.84,0c-1.4,3.71-4.23,12.35-4.23,24.2
			c0,11.84,2.83,20.49,4.23,24.2h120.84c-0.98-6.98-1.82-16.03-1.67-26.59C133.91,59.63,134.62,52.27,135.47,46.27L135.47,46.27z"/>
	</g>
	<line class="st0" x1="17.52" y1="58.78" x2="59.78" y2="58.78"/>
	<g>
		<path class="st1" d="M24.07,31.36c0.72-1.8,1.82-6.15,2.01-11.92c0.21-6.33-1.11-10.28-1.94-11.95h99.34
			c0.08,0.23,0.2,0.51,0.35,0.88c0.77,1.81,2.37,5.58,2.31,11.05c-0.07,5.88-1.68,9.66-2.37,11.28c-0.11,0.27-0.2,0.48-0.27,0.66
			H24.07z"/>
		<path d="M123.14,7.99c0.07,0.18,0.15,0.37,0.24,0.58c0.76,1.78,2.33,5.48,2.27,10.85c-0.07,5.78-1.65,9.5-2.33,11.09
			c-0.05,0.12-0.1,0.24-0.15,0.35H24.79c0.76-2.24,1.63-6.41,1.79-11.4c0.18-5.62-0.84-9.43-1.67-11.47H123.14 M123.92,6.99
			c-33.55,0-67.1,0-100.65,0c0.36,0.43,2.57,4.45,2.31,12.43c-0.23,7.03-1.83,11.86-2.31,12.43h100.65
			c-0.27-0.27,2.63-4.42,2.72-12.43C126.74,11.74,123.59,7.33,123.92,6.99L123.92,6.99z"/>
	</g>
	<path class="st2" d="M19.56,6.99h105.92c0,3.55,2.34,8.89,2.34,12.43c0,4.74-2.34,7.69-2.34,12.43H19.56"/>
	<line class="st0" x1="17.52" y1="63.78" x2="98.13" y2="63.78"/>
	<line class="st0" x1="17.52" y1="81.78" x2="46.09" y2="81.78"/>
	<path class="st3" d="M139.7,46.27H13.19c0,6.9-2.8,17.29-2.8,24.2c0,9.23,2.8,14.97,2.8,24.2H139.7"/>
	<path class="st4" d="M139.7,46.27H13.19c0,6.9-2.8,17.29-2.8,24.2c0,9.23,2.8,14.97,2.8,24.2H139.7"/>
	<line class="st5" x1="60.96" y1="16.69" x2="127.09" y2="16.69"/>
	<line class="st5" x1="81.7" y1="19.78" x2="126.31" y2="19.78"/>
</g>
</svg>
